<mxfile host="app.diagrams.net" agent="Mozilla/5.0 (Windows NT 10.0; Win64; x64) AppleWebKit/537.36 (KHTML, like Gecko) Chrome/131.0.0.0 Safari/537.36" version="25.0.3">
  <diagram name="Page-1" id="nQ3FC_XmF5aESIAEnWk7">
    <mxGraphModel dx="2868" dy="1560" grid="1" gridSize="10" guides="1" tooltips="1" connect="1" arrows="1" fold="1" page="1" pageScale="1" pageWidth="850" pageHeight="1100" math="0" shadow="0">
      <root>
        <mxCell id="0" />
        <mxCell id="1" parent="0" />
        <mxCell id="WQB1xdpWo7mnEqvRlCj6-1" value="start" style="rhombus;whiteSpace=wrap;html=1;" parent="1" vertex="1">
          <mxGeometry x="378" y="90" width="95" height="100" as="geometry" />
        </mxCell>
        <mxCell id="WQB1xdpWo7mnEqvRlCj6-2" value="check communication&amp;nbsp;&lt;div&gt;request&lt;/div&gt;" style="rounded=1;whiteSpace=wrap;html=1;" parent="1" vertex="1">
          <mxGeometry x="368" y="240" width="114.5" height="50" as="geometry" />
        </mxCell>
        <mxCell id="WQB1xdpWo7mnEqvRlCj6-4" value="check for&amp;nbsp;&lt;div&gt;validity of&amp;nbsp;&lt;/div&gt;&lt;div&gt;request&lt;/div&gt;" style="rounded=1;whiteSpace=wrap;html=1;" parent="1" vertex="1">
          <mxGeometry x="368.25" y="370" width="114.5" height="50" as="geometry" />
        </mxCell>
        <mxCell id="WQB1xdpWo7mnEqvRlCj6-6" value="" style="endArrow=classic;html=1;rounded=0;exitX=0.5;exitY=1;exitDx=0;exitDy=0;entryX=0.5;entryY=0;entryDx=0;entryDy=0;" parent="1" source="WQB1xdpWo7mnEqvRlCj6-1" target="WQB1xdpWo7mnEqvRlCj6-2" edge="1">
          <mxGeometry width="50" height="50" relative="1" as="geometry">
            <mxPoint x="430" y="420" as="sourcePoint" />
            <mxPoint x="480" y="370" as="targetPoint" />
          </mxGeometry>
        </mxCell>
        <mxCell id="WQB1xdpWo7mnEqvRlCj6-7" value="&lt;div&gt;&lt;br&gt;&lt;/div&gt;&lt;div&gt;&lt;br&gt;&lt;/div&gt;" style="edgeLabel;html=1;align=center;verticalAlign=middle;resizable=0;points=[];" parent="WQB1xdpWo7mnEqvRlCj6-6" vertex="1" connectable="0">
          <mxGeometry x="-0.0001" relative="1" as="geometry">
            <mxPoint as="offset" />
          </mxGeometry>
        </mxCell>
        <mxCell id="WQB1xdpWo7mnEqvRlCj6-8" value="" style="endArrow=classic;html=1;rounded=0;exitX=0.5;exitY=1;exitDx=0;exitDy=0;entryX=0.5;entryY=0;entryDx=0;entryDy=0;" parent="1" source="WQB1xdpWo7mnEqvRlCj6-2" target="WQB1xdpWo7mnEqvRlCj6-4" edge="1">
          <mxGeometry width="50" height="50" relative="1" as="geometry">
            <mxPoint x="426" y="290" as="sourcePoint" />
            <mxPoint x="425" y="340" as="targetPoint" />
          </mxGeometry>
        </mxCell>
        <mxCell id="WQB1xdpWo7mnEqvRlCj6-9" value="&lt;div&gt;&lt;br&gt;&lt;/div&gt;&lt;div&gt;&lt;br&gt;&lt;/div&gt;" style="edgeLabel;html=1;align=center;verticalAlign=middle;resizable=0;points=[];" parent="WQB1xdpWo7mnEqvRlCj6-8" vertex="1" connectable="0">
          <mxGeometry x="-0.0001" relative="1" as="geometry">
            <mxPoint as="offset" />
          </mxGeometry>
        </mxCell>
        <mxCell id="WQB1xdpWo7mnEqvRlCj6-10" value="coms&lt;div&gt;recieved&lt;/div&gt;" style="edgeLabel;html=1;align=center;verticalAlign=middle;resizable=0;points=[];" parent="WQB1xdpWo7mnEqvRlCj6-8" vertex="1" connectable="0">
          <mxGeometry x="-0.0243" y="1" relative="1" as="geometry">
            <mxPoint x="-1" as="offset" />
          </mxGeometry>
        </mxCell>
        <mxCell id="WQB1xdpWo7mnEqvRlCj6-13" value="" style="endArrow=classic;html=1;rounded=0;exitX=0.5;exitY=1;exitDx=0;exitDy=0;entryX=0.5;entryY=0;entryDx=0;entryDy=0;" parent="1" edge="1">
          <mxGeometry width="50" height="50" relative="1" as="geometry">
            <mxPoint x="424" y="420" as="sourcePoint" />
            <mxPoint x="425" y="500" as="targetPoint" />
          </mxGeometry>
        </mxCell>
        <mxCell id="WQB1xdpWo7mnEqvRlCj6-14" value="&lt;div&gt;&lt;br&gt;&lt;/div&gt;&lt;div&gt;&lt;br&gt;&lt;/div&gt;" style="edgeLabel;html=1;align=center;verticalAlign=middle;resizable=0;points=[];" parent="WQB1xdpWo7mnEqvRlCj6-13" vertex="1" connectable="0">
          <mxGeometry x="-0.0001" relative="1" as="geometry">
            <mxPoint as="offset" />
          </mxGeometry>
        </mxCell>
        <mxCell id="WQB1xdpWo7mnEqvRlCj6-15" value="valid&lt;div&gt;messae&lt;/div&gt;" style="edgeLabel;html=1;align=center;verticalAlign=middle;resizable=0;points=[];" parent="WQB1xdpWo7mnEqvRlCj6-13" vertex="1" connectable="0">
          <mxGeometry x="-0.0243" y="1" relative="1" as="geometry">
            <mxPoint as="offset" />
          </mxGeometry>
        </mxCell>
        <mxCell id="WQB1xdpWo7mnEqvRlCj6-16" value="" style="endArrow=classic;html=1;rounded=0;exitX=0;exitY=0.5;exitDx=0;exitDy=0;" parent="1" source="WQB1xdpWo7mnEqvRlCj6-4" edge="1">
          <mxGeometry width="50" height="50" relative="1" as="geometry">
            <mxPoint x="283" y="395" as="sourcePoint" />
            <mxPoint x="426" y="210" as="targetPoint" />
            <Array as="points">
              <mxPoint x="320" y="395" />
              <mxPoint x="320" y="210" />
            </Array>
          </mxGeometry>
        </mxCell>
        <mxCell id="WQB1xdpWo7mnEqvRlCj6-19" value="Not a valid&lt;div&gt;message&lt;/div&gt;" style="edgeLabel;html=1;align=center;verticalAlign=middle;resizable=0;points=[];" parent="WQB1xdpWo7mnEqvRlCj6-16" vertex="1" connectable="0">
          <mxGeometry x="-0.2542" y="-1" relative="1" as="geometry">
            <mxPoint as="offset" />
          </mxGeometry>
        </mxCell>
        <mxCell id="WQB1xdpWo7mnEqvRlCj6-20" value="command&amp;nbsp;&lt;div&gt;execution&lt;/div&gt;" style="rounded=1;whiteSpace=wrap;html=1;" parent="1" vertex="1">
          <mxGeometry x="368" y="500" width="120" height="60" as="geometry" />
        </mxCell>
        <mxCell id="WQB1xdpWo7mnEqvRlCj6-21" value="" style="endArrow=classic;html=1;rounded=0;exitX=0.5;exitY=1;exitDx=0;exitDy=0;entryX=0.5;entryY=0;entryDx=0;entryDy=0;" parent="1" source="WQB1xdpWo7mnEqvRlCj6-20" target="WQB1xdpWo7mnEqvRlCj6-22" edge="1">
          <mxGeometry width="50" height="50" relative="1" as="geometry">
            <mxPoint x="424" y="560" as="sourcePoint" />
            <mxPoint x="424" y="620" as="targetPoint" />
          </mxGeometry>
        </mxCell>
        <mxCell id="WQB1xdpWo7mnEqvRlCj6-22" value="fetch data from&amp;nbsp;&lt;div&gt;sensors or SD card&lt;/div&gt;" style="rounded=1;whiteSpace=wrap;html=1;" parent="1" vertex="1">
          <mxGeometry x="368.25" y="620" width="120" height="60" as="geometry" />
        </mxCell>
        <mxCell id="WQB1xdpWo7mnEqvRlCj6-27" value="" style="endArrow=classic;html=1;rounded=0;exitX=1;exitY=0.5;exitDx=0;exitDy=0;" parent="1" source="WQB1xdpWo7mnEqvRlCj6-30" edge="1">
          <mxGeometry width="50" height="50" relative="1" as="geometry">
            <mxPoint x="690" y="260" as="sourcePoint" />
            <mxPoint x="425" y="210" as="targetPoint" />
            <Array as="points">
              <mxPoint x="690" y="265" />
              <mxPoint x="690" y="210" />
            </Array>
          </mxGeometry>
        </mxCell>
        <mxCell id="WQB1xdpWo7mnEqvRlCj6-32" value="not enough&amp;nbsp;&lt;div&gt;time has&lt;/div&gt;&lt;div&gt;elapsed&lt;/div&gt;" style="edgeLabel;html=1;align=center;verticalAlign=middle;resizable=0;points=[];" parent="WQB1xdpWo7mnEqvRlCj6-27" vertex="1" connectable="0">
          <mxGeometry x="-0.0601" y="2" relative="1" as="geometry">
            <mxPoint as="offset" />
          </mxGeometry>
        </mxCell>
        <mxCell id="WQB1xdpWo7mnEqvRlCj6-28" value="" style="endArrow=classic;html=1;rounded=0;exitX=1;exitY=0.5;exitDx=0;exitDy=0;entryX=0;entryY=0.5;entryDx=0;entryDy=0;" parent="1" source="WQB1xdpWo7mnEqvRlCj6-2" target="WQB1xdpWo7mnEqvRlCj6-30" edge="1">
          <mxGeometry width="50" height="50" relative="1" as="geometry">
            <mxPoint x="482.75" y="270" as="sourcePoint" />
            <mxPoint x="530" y="230" as="targetPoint" />
          </mxGeometry>
        </mxCell>
        <mxCell id="WQB1xdpWo7mnEqvRlCj6-31" value="no com&amp;nbsp;&lt;div&gt;request&lt;/div&gt;" style="edgeLabel;html=1;align=center;verticalAlign=middle;resizable=0;points=[];" parent="WQB1xdpWo7mnEqvRlCj6-28" vertex="1" connectable="0">
          <mxGeometry x="0.1407" y="3" relative="1" as="geometry">
            <mxPoint x="-6" y="3" as="offset" />
          </mxGeometry>
        </mxCell>
        <mxCell id="WQB1xdpWo7mnEqvRlCj6-29" value="" style="endArrow=classic;html=1;rounded=0;exitX=0.5;exitY=1;exitDx=0;exitDy=0;" parent="1" edge="1">
          <mxGeometry width="50" height="50" relative="1" as="geometry">
            <mxPoint x="617.29" y="290" as="sourcePoint" />
            <mxPoint x="617.04" y="370" as="targetPoint" />
          </mxGeometry>
        </mxCell>
        <mxCell id="WQB1xdpWo7mnEqvRlCj6-33" value="enough&amp;nbsp;&lt;div&gt;time has&lt;/div&gt;&lt;div&gt;elapsed&lt;/div&gt;" style="edgeLabel;html=1;align=center;verticalAlign=middle;resizable=0;points=[];" parent="WQB1xdpWo7mnEqvRlCj6-29" vertex="1" connectable="0">
          <mxGeometry x="-0.0761" y="1" relative="1" as="geometry">
            <mxPoint as="offset" />
          </mxGeometry>
        </mxCell>
        <mxCell id="WQB1xdpWo7mnEqvRlCj6-30" value="&lt;font style=&quot;font-size: 10px;&quot;&gt;check if&amp;nbsp;&lt;/font&gt;&lt;div&gt;&lt;font style=&quot;font-size: 10px;&quot;&gt;enough time has&lt;/font&gt;&lt;/div&gt;&lt;div&gt;&lt;font style=&quot;font-size: 10px;&quot;&gt;elapsed since last save&lt;/font&gt;&lt;/div&gt;" style="rounded=1;whiteSpace=wrap;html=1;" parent="1" vertex="1">
          <mxGeometry x="560" y="240" width="114.5" height="50" as="geometry" />
        </mxCell>
        <mxCell id="WQB1xdpWo7mnEqvRlCj6-34" value="gather telemetry" style="rounded=1;whiteSpace=wrap;html=1;" parent="1" vertex="1">
          <mxGeometry x="560" y="370" width="114.5" height="50" as="geometry" />
        </mxCell>
        <mxCell id="WQB1xdpWo7mnEqvRlCj6-35" value="" style="endArrow=classic;html=1;rounded=0;exitX=0.5;exitY=1;exitDx=0;exitDy=0;" parent="1" edge="1">
          <mxGeometry width="50" height="50" relative="1" as="geometry">
            <mxPoint x="617.0699999999999" y="420" as="sourcePoint" />
            <mxPoint x="616.8199999999999" y="500" as="targetPoint" />
          </mxGeometry>
        </mxCell>
        <mxCell id="WQB1xdpWo7mnEqvRlCj6-38" value="If&amp;nbsp;&lt;div&gt;successful&lt;/div&gt;" style="edgeLabel;html=1;align=center;verticalAlign=middle;resizable=0;points=[];" parent="WQB1xdpWo7mnEqvRlCj6-35" vertex="1" connectable="0">
          <mxGeometry x="-0.1355" relative="1" as="geometry">
            <mxPoint as="offset" />
          </mxGeometry>
        </mxCell>
        <mxCell id="WQB1xdpWo7mnEqvRlCj6-39" value="save telemetry data&lt;div&gt;to SD card&lt;/div&gt;" style="rounded=1;whiteSpace=wrap;html=1;" parent="1" vertex="1">
          <mxGeometry x="560" y="500" width="114.5" height="50" as="geometry" />
        </mxCell>
        <mxCell id="WQB1xdpWo7mnEqvRlCj6-41" value="" style="endArrow=classic;html=1;rounded=0;exitX=1;exitY=0.5;exitDx=0;exitDy=0;entryX=0;entryY=0.5;entryDx=0;entryDy=0;" parent="1" source="WQB1xdpWo7mnEqvRlCj6-34" edge="1">
          <mxGeometry width="50" height="50" relative="1" as="geometry">
            <mxPoint x="700.25" y="390" as="sourcePoint" />
            <mxPoint x="790" y="395" as="targetPoint" />
          </mxGeometry>
        </mxCell>
        <mxCell id="WQB1xdpWo7mnEqvRlCj6-42" value="If&amp;nbsp;&lt;div&gt;unsuccessful&lt;/div&gt;" style="edgeLabel;html=1;align=center;verticalAlign=middle;resizable=0;points=[];" parent="WQB1xdpWo7mnEqvRlCj6-41" vertex="1" connectable="0">
          <mxGeometry x="-0.1355" relative="1" as="geometry">
            <mxPoint as="offset" />
          </mxGeometry>
        </mxCell>
        <mxCell id="WQB1xdpWo7mnEqvRlCj6-45" value="initiate error&lt;div&gt;correction protocol&lt;/div&gt;" style="rounded=1;whiteSpace=wrap;html=1;" parent="1" vertex="1">
          <mxGeometry x="790" y="370" width="114.5" height="50" as="geometry" />
        </mxCell>
        <mxCell id="WQB1xdpWo7mnEqvRlCj6-46" value="" style="endArrow=classic;html=1;rounded=0;exitX=0.5;exitY=1;exitDx=0;exitDy=0;entryX=1;entryY=0.5;entryDx=0;entryDy=0;" parent="1" source="WQB1xdpWo7mnEqvRlCj6-39" target="WQB1xdpWo7mnEqvRlCj6-1" edge="1">
          <mxGeometry width="50" height="50" relative="1" as="geometry">
            <mxPoint x="650" y="650" as="sourcePoint" />
            <mxPoint x="700" y="600" as="targetPoint" />
            <Array as="points">
              <mxPoint x="617" y="580" />
              <mxPoint x="940" y="580" />
              <mxPoint x="940" y="140" />
            </Array>
          </mxGeometry>
        </mxCell>
        <mxCell id="WQB1xdpWo7mnEqvRlCj6-47" value="" style="endArrow=classic;html=1;rounded=0;exitX=0.5;exitY=1;exitDx=0;exitDy=0;entryX=0.5;entryY=0;entryDx=0;entryDy=0;" parent="1" source="WQB1xdpWo7mnEqvRlCj6-22" target="WQB1xdpWo7mnEqvRlCj6-49" edge="1">
          <mxGeometry width="50" height="50" relative="1" as="geometry">
            <mxPoint x="425.31999999999994" y="680" as="sourcePoint" />
            <mxPoint x="425.06999999999994" y="760" as="targetPoint" />
          </mxGeometry>
        </mxCell>
        <mxCell id="WQB1xdpWo7mnEqvRlCj6-48" value="If&amp;nbsp;&lt;div&gt;successful&lt;/div&gt;" style="edgeLabel;html=1;align=center;verticalAlign=middle;resizable=0;points=[];" parent="WQB1xdpWo7mnEqvRlCj6-47" vertex="1" connectable="0">
          <mxGeometry x="-0.1355" relative="1" as="geometry">
            <mxPoint as="offset" />
          </mxGeometry>
        </mxCell>
        <mxCell id="WQB1xdpWo7mnEqvRlCj6-49" value="send data to ground&lt;div&gt;station&lt;/div&gt;" style="rounded=1;whiteSpace=wrap;html=1;" parent="1" vertex="1">
          <mxGeometry x="370" y="760" width="118" height="50" as="geometry" />
        </mxCell>
        <mxCell id="WQB1xdpWo7mnEqvRlCj6-50" value="" style="endArrow=classic;html=1;rounded=0;exitX=1;exitY=0.5;exitDx=0;exitDy=0;entryX=0;entryY=0.5;entryDx=0;entryDy=0;" parent="1" source="WQB1xdpWo7mnEqvRlCj6-22" target="WQB1xdpWo7mnEqvRlCj6-52" edge="1">
          <mxGeometry width="50" height="50" relative="1" as="geometry">
            <mxPoint x="490" y="645" as="sourcePoint" />
            <mxPoint x="605" y="645" as="targetPoint" />
          </mxGeometry>
        </mxCell>
        <mxCell id="WQB1xdpWo7mnEqvRlCj6-51" value="If&amp;nbsp;&lt;div&gt;unsuccessful&lt;/div&gt;" style="edgeLabel;html=1;align=center;verticalAlign=middle;resizable=0;points=[];" parent="WQB1xdpWo7mnEqvRlCj6-50" vertex="1" connectable="0">
          <mxGeometry x="-0.1355" relative="1" as="geometry">
            <mxPoint as="offset" />
          </mxGeometry>
        </mxCell>
        <mxCell id="WQB1xdpWo7mnEqvRlCj6-52" value="initiate error&lt;div&gt;correction protocol&lt;/div&gt;" style="rounded=1;whiteSpace=wrap;html=1;" parent="1" vertex="1">
          <mxGeometry x="610" y="625" width="114.5" height="50" as="geometry" />
        </mxCell>
        <mxCell id="WQB1xdpWo7mnEqvRlCj6-54" value="" style="endArrow=classic;html=1;rounded=0;exitX=0.5;exitY=1;exitDx=0;exitDy=0;entryX=0;entryY=0.5;entryDx=0;entryDy=0;" parent="1" target="WQB1xdpWo7mnEqvRlCj6-1" edge="1">
          <mxGeometry width="50" height="50" relative="1" as="geometry">
            <mxPoint x="424" y="810" as="sourcePoint" />
            <mxPoint x="280" y="400" as="targetPoint" />
            <Array as="points">
              <mxPoint x="424" y="840" />
              <mxPoint x="260" y="840" />
              <mxPoint x="260" y="140" />
            </Array>
          </mxGeometry>
        </mxCell>
        <mxCell id="JdPSia93DI_lH9oChrFC-17" style="edgeStyle=orthogonalEdgeStyle;rounded=0;orthogonalLoop=1;jettySize=auto;html=1;exitX=0.5;exitY=1;exitDx=0;exitDy=0;entryX=0.5;entryY=0;entryDx=0;entryDy=0;" edge="1" parent="1" source="JdPSia93DI_lH9oChrFC-1" target="JdPSia93DI_lH9oChrFC-2">
          <mxGeometry relative="1" as="geometry" />
        </mxCell>
        <mxCell id="JdPSia93DI_lH9oChrFC-1" value="initiate error&lt;div&gt;correction protocol&lt;/div&gt;" style="rounded=1;whiteSpace=wrap;html=1;" vertex="1" parent="1">
          <mxGeometry x="1250" y="115" width="114.5" height="50" as="geometry" />
        </mxCell>
        <mxCell id="JdPSia93DI_lH9oChrFC-19" style="edgeStyle=orthogonalEdgeStyle;rounded=0;orthogonalLoop=1;jettySize=auto;html=1;exitX=1;exitY=0.5;exitDx=0;exitDy=0;" edge="1" parent="1" source="JdPSia93DI_lH9oChrFC-2" target="JdPSia93DI_lH9oChrFC-7">
          <mxGeometry relative="1" as="geometry" />
        </mxCell>
        <mxCell id="JdPSia93DI_lH9oChrFC-20" value="no" style="edgeLabel;html=1;align=center;verticalAlign=middle;resizable=0;points=[];" vertex="1" connectable="0" parent="JdPSia93DI_lH9oChrFC-19">
          <mxGeometry x="0.1338" y="-1" relative="1" as="geometry">
            <mxPoint as="offset" />
          </mxGeometry>
        </mxCell>
        <mxCell id="JdPSia93DI_lH9oChrFC-22" style="edgeStyle=orthogonalEdgeStyle;rounded=0;orthogonalLoop=1;jettySize=auto;html=1;exitX=0.5;exitY=1;exitDx=0;exitDy=0;entryX=0.5;entryY=0;entryDx=0;entryDy=0;" edge="1" parent="1" source="JdPSia93DI_lH9oChrFC-2" target="JdPSia93DI_lH9oChrFC-3">
          <mxGeometry relative="1" as="geometry" />
        </mxCell>
        <mxCell id="JdPSia93DI_lH9oChrFC-23" value="yes" style="edgeLabel;html=1;align=center;verticalAlign=middle;resizable=0;points=[];" vertex="1" connectable="0" parent="JdPSia93DI_lH9oChrFC-22">
          <mxGeometry x="-0.0514" y="-1" relative="1" as="geometry">
            <mxPoint as="offset" />
          </mxGeometry>
        </mxCell>
        <mxCell id="JdPSia93DI_lH9oChrFC-2" value="check if error&lt;div&gt;is predefined&lt;/div&gt;" style="rounded=1;whiteSpace=wrap;html=1;" vertex="1" parent="1">
          <mxGeometry x="1250" y="210" width="114.5" height="50" as="geometry" />
        </mxCell>
        <mxCell id="JdPSia93DI_lH9oChrFC-25" style="edgeStyle=orthogonalEdgeStyle;rounded=0;orthogonalLoop=1;jettySize=auto;html=1;exitX=1;exitY=0.5;exitDx=0;exitDy=0;entryX=0;entryY=0.5;entryDx=0;entryDy=0;" edge="1" parent="1" source="JdPSia93DI_lH9oChrFC-3" target="JdPSia93DI_lH9oChrFC-5">
          <mxGeometry relative="1" as="geometry" />
        </mxCell>
        <mxCell id="JdPSia93DI_lH9oChrFC-26" value="no" style="edgeLabel;html=1;align=center;verticalAlign=middle;resizable=0;points=[];" vertex="1" connectable="0" parent="JdPSia93DI_lH9oChrFC-25">
          <mxGeometry x="-0.0989" relative="1" as="geometry">
            <mxPoint as="offset" />
          </mxGeometry>
        </mxCell>
        <mxCell id="JdPSia93DI_lH9oChrFC-27" style="edgeStyle=orthogonalEdgeStyle;rounded=0;orthogonalLoop=1;jettySize=auto;html=1;exitX=0.5;exitY=1;exitDx=0;exitDy=0;entryX=0.5;entryY=0;entryDx=0;entryDy=0;" edge="1" parent="1" source="JdPSia93DI_lH9oChrFC-3" target="JdPSia93DI_lH9oChrFC-4">
          <mxGeometry relative="1" as="geometry" />
        </mxCell>
        <mxCell id="JdPSia93DI_lH9oChrFC-28" value="yes" style="edgeLabel;html=1;align=center;verticalAlign=middle;resizable=0;points=[];" vertex="1" connectable="0" parent="JdPSia93DI_lH9oChrFC-27">
          <mxGeometry x="-0.0333" y="-1" relative="1" as="geometry">
            <mxPoint as="offset" />
          </mxGeometry>
        </mxCell>
        <mxCell id="JdPSia93DI_lH9oChrFC-3" value="check if error&lt;div&gt;is fixable&lt;/div&gt;" style="rounded=1;whiteSpace=wrap;html=1;" vertex="1" parent="1">
          <mxGeometry x="1250" y="310" width="114.5" height="50" as="geometry" />
        </mxCell>
        <mxCell id="JdPSia93DI_lH9oChrFC-29" style="edgeStyle=orthogonalEdgeStyle;rounded=0;orthogonalLoop=1;jettySize=auto;html=1;exitX=0.5;exitY=1;exitDx=0;exitDy=0;entryX=0.5;entryY=0;entryDx=0;entryDy=0;" edge="1" parent="1" source="JdPSia93DI_lH9oChrFC-4" target="JdPSia93DI_lH9oChrFC-9">
          <mxGeometry relative="1" as="geometry" />
        </mxCell>
        <mxCell id="JdPSia93DI_lH9oChrFC-4" value="fix error with&amp;nbsp;&lt;div&gt;predefined&amp;nbsp;&lt;/div&gt;&lt;div&gt;behaviour&lt;/div&gt;" style="rounded=1;whiteSpace=wrap;html=1;" vertex="1" parent="1">
          <mxGeometry x="1250" y="410" width="114.5" height="50" as="geometry" />
        </mxCell>
        <mxCell id="JdPSia93DI_lH9oChrFC-31" style="edgeStyle=orthogonalEdgeStyle;rounded=0;orthogonalLoop=1;jettySize=auto;html=1;exitX=0.5;exitY=1;exitDx=0;exitDy=0;entryX=0.5;entryY=0;entryDx=0;entryDy=0;" edge="1" parent="1" source="JdPSia93DI_lH9oChrFC-5" target="JdPSia93DI_lH9oChrFC-6">
          <mxGeometry relative="1" as="geometry" />
        </mxCell>
        <mxCell id="JdPSia93DI_lH9oChrFC-5" value="isolate faults&amp;nbsp;&lt;div&gt;and faulty systems&lt;/div&gt;" style="rounded=1;whiteSpace=wrap;html=1;" vertex="1" parent="1">
          <mxGeometry x="1410" y="310" width="114.5" height="50" as="geometry" />
        </mxCell>
        <mxCell id="JdPSia93DI_lH9oChrFC-32" style="edgeStyle=orthogonalEdgeStyle;rounded=0;orthogonalLoop=1;jettySize=auto;html=1;exitX=0.5;exitY=1;exitDx=0;exitDy=0;entryX=0.5;entryY=0;entryDx=0;entryDy=0;" edge="1" parent="1" source="JdPSia93DI_lH9oChrFC-6" target="JdPSia93DI_lH9oChrFC-14">
          <mxGeometry relative="1" as="geometry" />
        </mxCell>
        <mxCell id="JdPSia93DI_lH9oChrFC-6" value="alert ground control&lt;div&gt;for error and actions&lt;/div&gt;&lt;div&gt;taken to isolate it&lt;/div&gt;" style="rounded=1;whiteSpace=wrap;html=1;" vertex="1" parent="1">
          <mxGeometry x="1410" y="410" width="114.5" height="50" as="geometry" />
        </mxCell>
        <mxCell id="JdPSia93DI_lH9oChrFC-33" style="edgeStyle=orthogonalEdgeStyle;rounded=0;orthogonalLoop=1;jettySize=auto;html=1;exitX=0.5;exitY=1;exitDx=0;exitDy=0;entryX=0.5;entryY=0;entryDx=0;entryDy=0;" edge="1" parent="1" source="JdPSia93DI_lH9oChrFC-7" target="JdPSia93DI_lH9oChrFC-8">
          <mxGeometry relative="1" as="geometry" />
        </mxCell>
        <mxCell id="JdPSia93DI_lH9oChrFC-7" value="send error to&amp;nbsp;&lt;div&gt;ground control&lt;/div&gt;" style="rounded=1;whiteSpace=wrap;html=1;" vertex="1" parent="1">
          <mxGeometry x="1570" y="210" width="114.5" height="50" as="geometry" />
        </mxCell>
        <mxCell id="JdPSia93DI_lH9oChrFC-34" style="edgeStyle=orthogonalEdgeStyle;rounded=0;orthogonalLoop=1;jettySize=auto;html=1;exitX=0.5;exitY=1;exitDx=0;exitDy=0;entryX=0.5;entryY=0;entryDx=0;entryDy=0;" edge="1" parent="1" source="JdPSia93DI_lH9oChrFC-8" target="JdPSia93DI_lH9oChrFC-11">
          <mxGeometry relative="1" as="geometry" />
        </mxCell>
        <mxCell id="JdPSia93DI_lH9oChrFC-35" value="response&lt;div&gt;gotten&lt;/div&gt;" style="edgeLabel;html=1;align=center;verticalAlign=middle;resizable=0;points=[];" vertex="1" connectable="0" parent="JdPSia93DI_lH9oChrFC-34">
          <mxGeometry x="-0.3667" y="-1" relative="1" as="geometry">
            <mxPoint x="1" y="4" as="offset" />
          </mxGeometry>
        </mxCell>
        <mxCell id="JdPSia93DI_lH9oChrFC-38" style="edgeStyle=orthogonalEdgeStyle;rounded=0;orthogonalLoop=1;jettySize=auto;html=1;exitX=1;exitY=0.5;exitDx=0;exitDy=0;entryX=1;entryY=0.5;entryDx=0;entryDy=0;" edge="1" parent="1" source="JdPSia93DI_lH9oChrFC-8" target="JdPSia93DI_lH9oChrFC-7">
          <mxGeometry relative="1" as="geometry">
            <mxPoint x="1720" y="230" as="targetPoint" />
            <Array as="points">
              <mxPoint x="1720" y="335" />
              <mxPoint x="1720" y="235" />
            </Array>
          </mxGeometry>
        </mxCell>
        <mxCell id="JdPSia93DI_lH9oChrFC-39" value="no&amp;nbsp;&lt;div&gt;response&lt;/div&gt;&lt;div&gt;gotten&lt;/div&gt;" style="edgeLabel;html=1;align=center;verticalAlign=middle;resizable=0;points=[];" vertex="1" connectable="0" parent="JdPSia93DI_lH9oChrFC-38">
          <mxGeometry x="-0.1754" y="-2" relative="1" as="geometry">
            <mxPoint y="-20" as="offset" />
          </mxGeometry>
        </mxCell>
        <mxCell id="JdPSia93DI_lH9oChrFC-8" value="await response" style="rounded=1;whiteSpace=wrap;html=1;" vertex="1" parent="1">
          <mxGeometry x="1570" y="310" width="114.5" height="50" as="geometry" />
        </mxCell>
        <mxCell id="JdPSia93DI_lH9oChrFC-30" style="edgeStyle=orthogonalEdgeStyle;rounded=0;orthogonalLoop=1;jettySize=auto;html=1;exitX=0.5;exitY=1;exitDx=0;exitDy=0;entryX=0.5;entryY=0;entryDx=0;entryDy=0;" edge="1" parent="1" source="JdPSia93DI_lH9oChrFC-9" target="JdPSia93DI_lH9oChrFC-10">
          <mxGeometry relative="1" as="geometry" />
        </mxCell>
        <mxCell id="JdPSia93DI_lH9oChrFC-9" value="alert ground control&lt;div&gt;for error and actions&lt;/div&gt;&lt;div&gt;taken to isolate it&lt;/div&gt;" style="rounded=1;whiteSpace=wrap;html=1;" vertex="1" parent="1">
          <mxGeometry x="1250" y="500" width="114.5" height="50" as="geometry" />
        </mxCell>
        <mxCell id="JdPSia93DI_lH9oChrFC-10" value="return to normal operating mode" style="rounded=1;whiteSpace=wrap;html=1;" vertex="1" parent="1">
          <mxGeometry x="1250" y="590" width="114.5" height="50" as="geometry" />
        </mxCell>
        <mxCell id="JdPSia93DI_lH9oChrFC-40" style="edgeStyle=orthogonalEdgeStyle;rounded=0;orthogonalLoop=1;jettySize=auto;html=1;exitX=0.5;exitY=1;exitDx=0;exitDy=0;entryX=0.5;entryY=0;entryDx=0;entryDy=0;" edge="1" parent="1" source="JdPSia93DI_lH9oChrFC-11" target="JdPSia93DI_lH9oChrFC-12">
          <mxGeometry relative="1" as="geometry" />
        </mxCell>
        <mxCell id="JdPSia93DI_lH9oChrFC-11" value="take actions outlined in response" style="rounded=1;whiteSpace=wrap;html=1;" vertex="1" parent="1">
          <mxGeometry x="1570" y="410" width="114.5" height="50" as="geometry" />
        </mxCell>
        <mxCell id="JdPSia93DI_lH9oChrFC-41" style="edgeStyle=orthogonalEdgeStyle;rounded=0;orthogonalLoop=1;jettySize=auto;html=1;exitX=0.5;exitY=1;exitDx=0;exitDy=0;" edge="1" parent="1" source="JdPSia93DI_lH9oChrFC-12">
          <mxGeometry relative="1" as="geometry">
            <mxPoint x="1627.5" y="640" as="targetPoint" />
          </mxGeometry>
        </mxCell>
        <mxCell id="JdPSia93DI_lH9oChrFC-42" value="if checks&lt;div&gt;passed&amp;nbsp;&lt;/div&gt;&lt;div&gt;succsesfully&lt;/div&gt;" style="edgeLabel;html=1;align=center;verticalAlign=middle;resizable=0;points=[];" vertex="1" connectable="0" parent="JdPSia93DI_lH9oChrFC-41">
          <mxGeometry x="-0.2149" y="-1" relative="1" as="geometry">
            <mxPoint as="offset" />
          </mxGeometry>
        </mxCell>
        <mxCell id="JdPSia93DI_lH9oChrFC-45" style="edgeStyle=orthogonalEdgeStyle;rounded=0;orthogonalLoop=1;jettySize=auto;html=1;exitX=1;exitY=0.5;exitDx=0;exitDy=0;entryX=0;entryY=0.5;entryDx=0;entryDy=0;" edge="1" parent="1" source="JdPSia93DI_lH9oChrFC-12" target="JdPSia93DI_lH9oChrFC-44">
          <mxGeometry relative="1" as="geometry" />
        </mxCell>
        <mxCell id="JdPSia93DI_lH9oChrFC-12" value="check systems" style="rounded=1;whiteSpace=wrap;html=1;" vertex="1" parent="1">
          <mxGeometry x="1570" y="500" width="114.5" height="50" as="geometry" />
        </mxCell>
        <mxCell id="JdPSia93DI_lH9oChrFC-14" value="return to diminished&amp;nbsp;&lt;div&gt;operating mode&lt;/div&gt;" style="rounded=1;whiteSpace=wrap;html=1;" vertex="1" parent="1">
          <mxGeometry x="1410" y="500" width="114.5" height="50" as="geometry" />
        </mxCell>
        <mxCell id="JdPSia93DI_lH9oChrFC-43" value="return to normal operating mode" style="rounded=1;whiteSpace=wrap;html=1;" vertex="1" parent="1">
          <mxGeometry x="1570" y="640" width="114.5" height="50" as="geometry" />
        </mxCell>
        <mxCell id="JdPSia93DI_lH9oChrFC-44" value="return to deminished&lt;div&gt;operating mode&lt;/div&gt;" style="rounded=1;whiteSpace=wrap;html=1;" vertex="1" parent="1">
          <mxGeometry x="1760" y="500" width="114.5" height="50" as="geometry" />
        </mxCell>
      </root>
    </mxGraphModel>
  </diagram>
</mxfile>
